<svg width="152" height="56" viewBox="0 0 152 56" fill="none" xmlns="http://www.w3.org/2000/svg">
<path d="M4.43314 52.0023H12.9162V56H0V35.3324H4.43314V52.0023Z" fill="#0D0E0F"/>
<path d="M22.0939 35.332V39.0597H20.5436V52.2981H22.0939V55.9997H14.5688V52.2981H16.1191V39.0597H14.5688V35.332H22.0939Z" fill="#0D0E0F"/>
<path d="M38.9504 35.332H43.3487V55.9997H39.1507L29.2132 42.4999V55.9997H24.8062V35.332H28.9519L38.9504 48.9189V35.332Z" fill="#0D0E0F"/>
<path d="M55.0954 44.7735L65.0591 56H59.6069L52.2909 47.5779L50.5142 49.3808V56H46.0811V35.3324H50.5142V43.7022L58.8231 35.3324H64.4755L55.0954 44.7735Z" fill="#0D0E0F"/>
<path d="M66.8677 35.3324H79.7752V39.3562H71.2921V43.0838H78.7561V47.1076H71.2921V52.0023H79.7752V56H66.8677V35.3324Z" fill="#0D0E0F"/>
<path d="M90.9077 35.332C92.4058 35.332 93.7253 35.6064 94.8706 36.1507C96.0202 36.6907 96.9783 37.4288 97.7447 38.3629C98.5111 39.2992 99.0903 40.3988 99.4866 41.6638C99.8872 42.9245 100.088 44.2636 100.088 45.6789C100.088 47.1203 99.8785 48.466 99.4605 49.7201C99.0424 50.9743 98.4632 52.0695 97.7273 53.0036C96.9892 53.9333 96.116 54.6649 95.1057 55.1984C94.0954 55.734 92.998 55.9997 91.8135 55.9997H82.5728V35.332H90.9077ZM90.9339 52.002C91.77 52.002 92.4842 51.8344 93.0764 51.4969C93.6687 51.155 94.1586 50.6934 94.5483 50.1121C94.9359 49.5263 95.2233 48.8557 95.4106 48.1002C95.5956 47.3403 95.6893 46.5455 95.6893 45.7138C95.6893 44.8776 95.6022 44.0764 95.428 43.3099C95.2538 42.5391 94.9707 41.862 94.5832 41.2806C94.1934 40.6949 93.697 40.2268 93.0938 39.8784C92.4885 39.53 91.77 39.3558 90.9339 39.3558H86.9972V52.002H90.9339Z" fill="#0D0E0F"/>
<path d="M109.583 49.1513C109.953 49.4082 110.249 49.7392 110.471 50.1442C110.698 50.5513 110.811 51.0021 110.811 51.4941C110.811 51.8839 110.735 52.2519 110.585 52.6002C110.432 52.9443 110.228 53.2426 109.966 53.4973C109.709 53.7477 109.409 53.948 109.06 54.0983C108.716 54.2442 108.351 54.316 107.963 54.316H103.652V44.8227H107.824C108.183 44.8227 108.516 44.8923 108.825 45.0317C109.139 45.171 109.413 45.3583 109.653 45.5891C109.89 45.8221 110.075 46.0942 110.21 46.4078C110.343 46.717 110.41 47.0501 110.41 47.4094C110.41 47.7926 110.334 48.1301 110.184 48.4197C110.038 48.7115 109.838 48.9553 109.583 49.1513ZM105.681 48.3848H107.824C108.068 48.3848 108.272 48.3021 108.442 48.1323C108.61 47.9646 108.695 47.7578 108.695 47.5139C108.695 47.2766 108.61 47.0762 108.442 46.9129C108.272 46.7518 108.068 46.6691 107.824 46.6691H105.681V48.3848ZM107.963 52.4783C108.229 52.4783 108.455 52.3651 108.642 52.1386C108.827 51.9122 108.921 51.6487 108.921 51.3461C108.921 51.0325 108.827 50.7691 108.642 50.5535C108.455 50.3401 108.229 50.2313 107.963 50.2313H105.681V52.4783H107.963Z" fill="#FFD454"/>
<path d="M118.746 47.6532C118.746 47.9559 118.703 48.2433 118.616 48.5155C118.533 48.7898 118.417 49.038 118.267 49.2645C118.115 49.4909 117.932 49.6912 117.718 49.8654C117.503 50.0396 117.27 50.179 117.022 50.2835L120.166 54.316H117.797L114.862 50.4838H113.956V54.316H111.918V44.8226H116.02C116.39 44.8226 116.743 44.8988 117.074 45.0491C117.409 45.195 117.701 45.3953 117.945 45.65C118.193 45.907 118.389 46.2053 118.528 46.5471C118.672 46.8911 118.746 47.2591 118.746 47.6532ZM115.759 48.6374C116.02 48.6374 116.242 48.5416 116.429 48.35C116.615 48.1584 116.708 47.9276 116.708 47.6532C116.708 47.381 116.615 47.1481 116.429 46.9565C116.242 46.7649 116.02 46.669 115.759 46.669H113.956V48.6374H115.759Z" fill="#FFD454"/>
<path d="M124.57 44.8225V46.5383H123.856V52.6175H124.57V54.3158H121.112V52.6175H121.826V46.5383H121.112V44.8225H124.57Z" fill="#FFD454"/>
<path d="M130.281 52.4696C130.703 52.4696 131.121 52.3716 131.535 52.1735C131.946 51.9775 132.362 51.6466 132.78 51.1806L134.095 52.4261C133.566 53.1054 132.965 53.6193 132.292 53.9676C131.617 54.316 130.925 54.4902 130.211 54.4902C129.566 54.4902 128.961 54.3596 128.399 54.0983C127.842 53.8326 127.354 53.4777 126.936 53.0357C126.522 52.5894 126.198 52.069 125.961 51.4767C125.721 50.8801 125.604 50.2465 125.604 49.578C125.604 48.9118 125.725 48.2847 125.969 47.6968C126.218 47.1045 126.553 46.5863 126.971 46.1378C127.389 45.6914 127.881 45.3409 128.452 45.0839C129.026 44.8227 129.636 44.692 130.281 44.692C130.877 44.692 131.448 44.8052 131.988 45.0317C132.528 45.2538 133.054 45.6218 133.573 46.1378L132.388 47.5662C132.016 47.2178 131.661 46.987 131.326 46.8694C130.995 46.7475 130.646 46.6865 130.281 46.6865C129.915 46.6865 129.566 46.7627 129.235 46.9129C128.909 47.0654 128.626 47.27 128.382 47.5313C128.142 47.7882 127.955 48.0931 127.816 48.4458C127.681 48.8007 127.615 49.1774 127.615 49.578C127.615 49.9787 127.681 50.3532 127.816 50.7016C127.955 51.05 128.142 51.3591 128.382 51.6248C128.626 51.8861 128.909 52.0929 129.235 52.2432C129.566 52.3956 129.915 52.4696 130.281 52.4696Z" fill="#FFD454"/>
<path d="M139.244 49.16L143.825 54.316H141.317L137.964 50.449L137.145 51.2764V54.316H135.107V44.8227H137.145V48.6636L140.96 44.8227H143.555L139.244 49.16Z" fill="#FFD454"/>
<path d="M150.672 49.43C151.049 49.6521 151.337 49.9351 151.535 50.2835C151.731 50.6319 151.831 51.0369 151.831 51.4941C151.831 51.9187 151.726 52.3172 151.517 52.6873C151.313 53.0597 151.023 53.3885 150.646 53.6715C150.309 53.9328 149.923 54.1331 149.488 54.2725C149.057 54.4053 148.602 54.4771 148.121 54.4902C147.637 54.4902 147.176 54.4227 146.736 54.2899C146.3 54.1571 145.913 53.9567 145.577 53.6889C145.066 53.3057 144.717 52.8419 144.532 52.2954L146.405 51.4245C146.405 51.5116 146.435 51.6226 146.501 51.7554C146.564 51.8904 146.662 52.0211 146.797 52.1473C146.93 52.2758 147.104 52.3825 147.319 52.4696C147.533 52.5567 147.794 52.6002 148.103 52.6002C148.351 52.6002 148.573 52.5719 148.765 52.5131C148.957 52.45 149.116 52.3716 149.244 52.278C149.377 52.18 149.475 52.0733 149.54 51.9557C149.61 51.8338 149.645 51.7097 149.645 51.5812C149.645 51.4419 149.597 51.3112 149.505 51.1893C149.412 51.063 149.266 50.9629 149.07 50.8932C148.715 50.7669 148.338 50.6624 147.938 50.5796C147.541 50.4925 147.156 50.3859 146.779 50.2574C146.407 50.1246 146.059 49.9504 145.734 49.7348C145.414 49.5214 145.161 49.221 144.976 48.8377C144.802 48.5024 144.715 48.141 144.715 47.7578C144.715 47.3288 144.815 46.9129 145.02 46.5123C145.222 46.1117 145.499 45.772 145.847 45.4933C146.172 45.2385 146.54 45.0404 146.953 44.901C147.365 44.7617 147.798 44.692 148.251 44.692C148.708 44.692 149.144 44.7595 149.558 44.8923C149.976 45.0273 150.346 45.2233 150.672 45.4846C150.997 45.7241 151.252 46.0028 151.439 46.3207L149.915 47.3658C149.727 47.1111 149.492 46.9042 149.209 46.7475C148.931 46.5907 148.617 46.5123 148.269 46.5123C147.785 46.5123 147.411 46.6212 147.145 46.8346C146.884 47.0501 146.753 47.331 146.753 47.6794C146.753 47.8361 146.825 47.9799 146.971 48.1061C147.121 48.2281 147.313 48.3391 147.546 48.4371C147.783 48.5373 148.051 48.6244 148.347 48.6984C148.643 48.7746 148.935 48.8508 149.227 48.9248C149.516 49.001 149.788 49.0794 150.045 49.16C150.307 49.2427 150.516 49.332 150.672 49.43Z" fill="#FFD454"/>
<mask id="mask0_584_3378" style="mask-type:luminance" maskUnits="userSpaceOnUse" x="95" y="0" width="38" height="42">
<path d="M95.0381 0H132.384V41.8056H95.0381V0Z" fill="white"/>
</mask>
<g mask="url(#mask0_584_3378)">
<path d="M118.014 39.7153L130.496 24.8526C130.723 24.576 130.925 24.2843 131.102 23.9729C131.278 23.6615 131.428 23.3393 131.548 23.0018C131.67 22.6643 131.759 22.3203 131.822 21.9675C131.883 21.617 131.914 21.2599 131.914 20.9028C131.914 20.5457 131.883 20.1908 131.822 19.8381C131.759 19.4853 131.67 19.1413 131.548 18.8038C131.428 18.4685 131.278 18.1441 131.102 17.8327C130.925 17.5235 130.723 17.2296 130.496 16.953L126.838 12.5983C126.701 12.435 126.54 12.3043 126.351 12.2064C126.161 12.1084 125.963 12.0518 125.75 12.0322C125.539 12.0148 125.332 12.0387 125.129 12.1019C124.927 12.1672 124.746 12.2673 124.583 12.4067C124.419 12.5439 124.291 12.7072 124.193 12.8966C124.095 13.086 124.036 13.2863 124.019 13.4997C124.001 13.7109 124.025 13.92 124.088 14.1225C124.154 14.325 124.254 14.5079 124.391 14.6712L128.047 19.0281C128.265 19.2915 128.432 19.5833 128.548 19.9056C128.663 20.2278 128.722 20.561 128.722 20.9028C128.722 21.2446 128.663 21.5778 128.548 21.9C128.432 22.2223 128.265 22.5162 128.047 22.7797L115.566 37.6403C115.444 37.7905 115.309 37.9233 115.159 38.0409C115.009 38.1585 114.848 38.2587 114.676 38.3414C114.504 38.422 114.323 38.4851 114.138 38.5265C113.951 38.5678 113.763 38.5896 113.572 38.5896C113.38 38.5896 113.193 38.5678 113.006 38.5265C112.821 38.4851 112.64 38.422 112.468 38.3414C112.296 38.2587 112.135 38.1585 111.984 38.0409C111.834 37.9233 111.699 37.7905 111.577 37.6403L99.0965 22.7797C98.8788 22.5162 98.7111 22.2223 98.5957 21.9C98.4803 21.5778 98.4215 21.2446 98.4215 20.9028C98.4215 20.561 98.4803 20.2278 98.5957 19.9056C98.7111 19.5833 98.8788 19.2915 99.0965 19.0281L111.577 4.16532C111.699 4.01726 111.834 3.88444 111.984 3.76468C112.135 3.6471 112.296 3.54694 112.468 3.46638C112.64 3.38364 112.821 3.3205 113.006 3.27913C113.193 3.23776 113.38 3.21598 113.572 3.21598C113.763 3.21598 113.951 3.23776 114.138 3.27913C114.323 3.3205 114.504 3.38364 114.676 3.46638C114.848 3.54694 115.009 3.6471 115.159 3.76468C115.309 3.88444 115.444 4.01726 115.566 4.16532L118.257 7.36824C118.395 7.52936 118.558 7.65565 118.745 7.75146C118.935 7.84508 119.133 7.90169 119.342 7.91694C119.551 7.93435 119.758 7.9104 119.958 7.84508C120.158 7.77976 120.337 7.6796 120.498 7.5446C120.659 7.40743 120.788 7.2463 120.885 7.05905C120.983 6.8718 121.042 6.67365 121.06 6.46245C121.079 6.25124 121.06 6.04657 120.997 5.84407C120.936 5.64158 120.838 5.45868 120.705 5.29538L118.014 2.09246C117.879 1.92915 117.735 1.77238 117.582 1.6265C117.43 1.47844 117.271 1.34126 117.103 1.21062C116.936 1.07998 116.762 0.960223 116.583 0.849176C116.402 0.740307 116.215 0.640149 116.026 0.548699C115.834 0.459426 115.638 0.378863 115.438 0.311365C115.237 0.243866 115.035 0.185077 114.828 0.139352C114.621 0.0936267 114.414 0.0587887 114.203 0.034838C113.994 0.013064 113.783 0 113.572 0C113.36 0 113.149 0.013064 112.94 0.034838C112.729 0.0587887 112.522 0.0936267 112.315 0.139352C112.109 0.185077 111.906 0.243866 111.706 0.311365C111.505 0.378863 111.309 0.459426 111.118 0.548699C110.928 0.640149 110.741 0.740307 110.56 0.849176C110.382 0.960223 110.208 1.07998 110.04 1.21062C109.872 1.34126 109.713 1.47844 109.561 1.6265C109.409 1.77238 109.265 1.92915 109.13 2.09246L96.6491 16.953C96.4205 17.2296 96.218 17.5235 96.0417 17.8327C95.8653 18.1441 95.7172 18.4685 95.5953 18.8038C95.4755 19.1413 95.3841 19.4853 95.3231 19.8381C95.26 20.1908 95.2295 20.5457 95.2295 20.9028C95.2295 21.2599 95.26 21.617 95.3231 21.9675C95.3841 22.3203 95.4755 22.6665 95.5953 23.0018C95.7172 23.3393 95.8653 23.6615 96.0417 23.9729C96.218 24.2843 96.4205 24.576 96.6491 24.8526L109.13 39.7153C109.265 39.8764 109.409 40.0332 109.561 40.1791C109.713 40.3272 109.872 40.4665 110.04 40.595C110.208 40.7256 110.382 40.8454 110.56 40.9564C110.741 41.0653 110.928 41.1676 111.118 41.2569C111.309 41.3462 111.505 41.4267 111.706 41.4942C111.906 41.5639 112.109 41.6205 112.315 41.6663C112.522 41.712 112.729 41.7468 112.94 41.7708C113.149 41.7947 113.36 41.8056 113.572 41.8056C113.783 41.8056 113.994 41.7947 114.203 41.7708C114.414 41.7468 114.621 41.712 114.828 41.6663C115.035 41.6205 115.237 41.5639 115.438 41.4942C115.638 41.4267 115.834 41.3462 116.026 41.2569C116.215 41.1676 116.402 41.0653 116.583 40.9564C116.762 40.8454 116.936 40.7256 117.103 40.595C117.271 40.4665 117.43 40.3272 117.582 40.1791C117.735 40.0332 117.879 39.8764 118.014 39.7153Z" fill="#FFBF00"/>
</g>
<mask id="mask1_584_3378" style="mask-type:luminance" maskUnits="userSpaceOnUse" x="112" y="0" width="39" height="42">
<path d="M112.875 0H150.221V41.8056H112.875V0Z" fill="white"/>
</mask>
<g mask="url(#mask1_584_3378)">
<path d="M127.095 2.09246L114.612 16.953C114.385 17.2296 114.183 17.5235 114.006 17.8327C113.83 18.1441 113.68 18.4685 113.56 18.8038C113.438 19.1413 113.347 19.4853 113.286 19.8381C113.225 20.1908 113.194 20.5457 113.194 20.9028C113.194 21.2599 113.225 21.617 113.286 21.9675C113.347 22.3203 113.438 22.6643 113.56 23.0018C113.68 23.3393 113.83 23.6615 114.006 23.9729C114.183 24.2843 114.385 24.576 114.612 24.8526L118.27 29.2073C118.407 29.3706 118.568 29.5013 118.758 29.5992C118.947 29.6972 119.147 29.7538 119.358 29.7734C119.57 29.7908 119.777 29.7669 119.979 29.7038C120.182 29.6384 120.364 29.5383 120.526 29.3989C120.689 29.2617 120.82 29.0984 120.915 28.909C121.013 28.7196 121.072 28.5193 121.089 28.3059C121.107 28.0947 121.085 27.8856 121.02 27.6831C120.955 27.4785 120.854 27.2956 120.717 27.1323L117.061 22.7797C116.844 22.5162 116.676 22.2223 116.561 21.9C116.445 21.5778 116.386 21.2446 116.386 20.9028C116.386 20.561 116.445 20.2278 116.561 19.9056C116.676 19.5833 116.844 19.2915 117.061 19.0281L129.542 4.16532C129.664 4.01726 129.799 3.88444 129.949 3.76468C130.099 3.6471 130.261 3.54694 130.433 3.46638C130.605 3.38364 130.785 3.3205 130.97 3.27913C131.158 3.23776 131.345 3.21598 131.537 3.21598C131.728 3.21598 131.915 3.23776 132.103 3.27913C132.288 3.3205 132.468 3.38364 132.64 3.46638C132.812 3.54694 132.974 3.6471 133.124 3.76468C133.274 3.88444 133.409 4.01726 133.531 4.16532L146.012 19.0281C146.229 19.2915 146.397 19.5833 146.513 19.9056C146.628 20.2278 146.687 20.561 146.687 20.9028C146.687 21.2446 146.628 21.5778 146.513 21.9C146.397 22.2223 146.229 22.5162 146.012 22.7797L133.531 37.6403C133.409 37.7905 133.274 37.9233 133.124 38.0409C132.974 38.1585 132.812 38.2587 132.64 38.3414C132.468 38.422 132.288 38.4851 132.103 38.5265C131.915 38.5678 131.728 38.5896 131.537 38.5896C131.345 38.5896 131.158 38.5678 130.97 38.5265C130.785 38.4851 130.605 38.422 130.433 38.3414C130.261 38.2587 130.099 38.1585 129.949 38.0409C129.799 37.9233 129.664 37.7905 129.542 37.6403L126.851 34.4374C126.714 34.2784 126.55 34.15 126.363 34.0563C126.174 33.9605 125.976 33.9039 125.766 33.8887C125.557 33.8712 125.351 33.8952 125.15 33.9605C124.95 34.0258 124.771 34.126 124.61 34.261C124.449 34.3982 124.321 34.5593 124.223 34.7466C124.125 34.9338 124.066 35.1341 124.049 35.3432C124.029 35.5544 124.049 35.7612 124.112 35.9615C124.173 36.164 124.271 36.3469 124.403 36.5102L127.095 39.7153C127.23 39.8764 127.373 40.0332 127.526 40.1791C127.678 40.3272 127.837 40.4665 128.005 40.595C128.172 40.7256 128.347 40.8454 128.525 40.9564C128.706 41.0653 128.893 41.1676 129.083 41.2569C129.274 41.3462 129.47 41.4267 129.671 41.4942C129.871 41.5639 130.073 41.6205 130.28 41.6663C130.487 41.712 130.694 41.7468 130.905 41.7708C131.114 41.7947 131.325 41.8056 131.537 41.8056C131.748 41.8056 131.959 41.7947 132.168 41.7708C132.379 41.7468 132.586 41.712 132.793 41.6663C133 41.6205 133.202 41.5639 133.403 41.4942C133.603 41.4267 133.799 41.3462 133.99 41.2569C134.18 41.1676 134.367 41.0653 134.548 40.9564C134.729 40.8454 134.901 40.7256 135.068 40.595C135.236 40.4665 135.395 40.3272 135.547 40.1791C135.7 40.0332 135.843 39.8764 135.978 39.7153L148.459 24.8526C148.688 24.576 148.89 24.2843 149.067 23.9729C149.243 23.6615 149.391 23.3393 149.513 23.0018C149.633 22.6665 149.724 22.3203 149.787 21.9675C149.848 21.617 149.879 21.2599 149.879 20.9028C149.879 20.5457 149.848 20.1908 149.787 19.8381C149.724 19.4853 149.633 19.1413 149.513 18.8038C149.391 18.4685 149.243 18.1441 149.067 17.8327C148.89 17.5235 148.688 17.2296 148.459 16.953L135.978 2.09246C135.843 1.92915 135.7 1.77238 135.547 1.6265C135.395 1.47844 135.236 1.34126 135.068 1.21062C134.901 1.07998 134.729 0.960223 134.548 0.849176C134.367 0.740307 134.18 0.640149 133.99 0.548699C133.799 0.459426 133.603 0.378863 133.403 0.311365C133.202 0.243866 133 0.185077 132.793 0.139352C132.586 0.0936267 132.379 0.0587887 132.168 0.034838C131.959 0.013064 131.748 0 131.537 0C131.325 0 131.114 0.013064 130.905 0.034838C130.694 0.0587887 130.487 0.0936267 130.28 0.139352C130.073 0.185077 129.871 0.243866 129.671 0.311365C129.47 0.378863 129.274 0.459426 129.083 0.548699C128.893 0.640149 128.706 0.740307 128.525 0.849176C128.347 0.960223 128.172 1.07998 128.005 1.21062C127.837 1.34126 127.678 1.47844 127.526 1.6265C127.373 1.77238 127.23 1.92915 127.095 2.09246Z" fill="#FFBF00"/>
</g>
</svg>
